<svg xmlns="http://www.w3.org/2000/svg" xmlns:xlink="http://www.w3.org/1999/xlink" width="500" zoomAndPan="magnify" viewBox="0 0 375 225" height="300" preserveAspectRatio="xMidYMid meet" version="1.0"><path stroke-linecap="butt" transform="matrix(0.75, 0, 0, 0.75, 15.237304, 49.976266)" fill="none" stroke-linejoin="miter" d="M 4.808595 113.0004 L 51.694013 113.0004 C 71.464847 113.0004 82.329431 104.526441 82.329431 89.500399 C 82.329431 78.406648 76.355473 71.354565 65.641931 69.578523 L 65.641931 69.349356 C 75.657556 66.958731 81.131514 60.292064 81.131514 50.391022 C 81.131514 35.479563 69.923181 27.120188 49.772138 27.120188 L 4.808595 27.120188 Z M 35.819013 61.104564 L 35.819013 48.000397 L 44.292971 48.000397 C 48.459638 48.000397 50.730472 50.27123 50.730472 54.323314 C 50.730472 58.599356 48.459638 61.104564 44.292971 61.104564 Z M 35.819013 92.12019 L 35.819013 78.406648 L 44.761721 78.406648 C 49.042971 78.406648 51.313805 81.02644 51.313805 85.802482 C 51.313805 89.849357 49.042971 92.12019 44.761721 92.12019 Z M 119.417974 115.15665 C 139.949225 115.15665 152.819017 102.370191 152.819017 81.984773 C 152.819017 61.599356 139.949225 48.818105 119.417974 48.818105 C 98.912765 48.818105 86.016931 61.599356 86.016931 81.984773 C 86.016931 102.370191 98.912765 115.15665 119.417974 115.15665 Z M 119.417974 92.729565 C 115.371099 92.729565 113.095057 89.15144 113.095057 81.984773 C 113.095057 74.823315 115.371099 71.239981 119.417974 71.239981 C 123.46485 71.239981 125.6211 74.823315 125.6211 81.984773 C 125.6211 89.15144 123.46485 92.729565 119.417974 92.729565 Z M 199.319019 49.776439 C 192.303394 49.776439 186.334644 54.437897 183.480477 62.531648 L 183.334644 62.531648 L 179.287769 50.974355 L 157.209643 50.974355 L 157.209643 113.0004 L 184.641935 113.0004 L 184.641935 77.208731 C 184.641935 71.969148 186.449227 68.854564 189.417977 68.854564 C 192.537769 68.854564 194.428394 72.203523 194.542978 79.364982 L 217.464854 73.630606 C 216.735687 58.599356 209.949228 49.776439 199.319019 49.776439 Z M 263.485689 49.776439 C 256.470063 49.776439 250.496105 54.437897 247.641938 62.531648 L 247.496105 62.531648 L 243.44923 50.974355 L 221.376312 50.974355 L 221.376312 113.0004 L 248.808605 113.0004 L 248.808605 77.208731 C 248.808605 71.969148 250.615897 68.854564 253.584647 68.854564 C 256.69923 68.854564 258.595064 72.203523 258.709647 79.364982 L 281.626315 73.630606 C 280.902356 58.599356 274.115898 49.776439 263.485689 49.776439 Z M 317.516941 115.15665 C 338.048192 115.15665 350.917984 102.370191 350.917984 81.984773 C 350.917984 61.599356 338.048192 48.818105 317.516941 48.818105 C 297.01694 48.818105 284.115898 61.599356 284.115898 81.984773 C 284.115898 102.370191 297.01694 115.15665 317.516941 115.15665 Z M 317.516941 92.729565 C 313.470066 92.729565 311.199232 89.15144 311.199232 81.984773 C 311.199232 74.823315 313.470066 71.239981 317.516941 71.239981 C 321.563816 71.239981 323.720066 74.823315 323.720066 81.984773 C 323.720066 89.15144 321.563816 92.729565 317.516941 92.729565 Z M 367.720068 113.0004 L 396.954444 113.0004 L 405.777361 79.599357 L 406.011736 79.599357 L 414.834653 113.0004 L 444.074238 113.0004 L 459.334655 50.974355 L 432.131529 50.974355 L 426.423196 87.83894 L 426.308612 87.83894 L 416.522153 50.974355 L 395.147153 50.974355 L 385.391944 86.99519 L 385.24611 86.99519 L 379.657569 50.974355 L 352.339859 50.974355 Z M 367.720068 113.0004 " stroke="#ffffff" stroke-width="4.473225" stroke-opacity="1" stroke-miterlimit="4"/></svg>