<svg xmlns="http://www.w3.org/2000/svg" xmlns:xlink="http://www.w3.org/1999/xlink" width="500" zoomAndPan="magnify" viewBox="0 0 375 225" height="300" preserveAspectRatio="xMidYMid meet" version="1.0"><defs><g/></defs><g fill="#000000" fill-opacity="1"><g transform="translate(23.627193, 139.1044)"><g><path d="M 3.578125 0 L 38.734375 0 C 53.582031 0 61.722656 -6.351562 61.722656 -17.621094 C 61.722656 -25.941406 57.25 -31.21875 49.199219 -32.5625 L 49.199219 -32.742188 C 56.714844 -34.53125 60.828125 -39.539062 60.828125 -46.964844 C 60.828125 -58.144531 52.421875 -64.40625 37.300781 -64.40625 L 3.578125 -64.40625 Z M 26.835938 -38.914062 L 26.835938 -48.753906 L 33.1875 -48.753906 C 36.320312 -48.753906 38.019531 -47.054688 38.019531 -44.011719 C 38.019531 -40.792969 36.320312 -38.914062 33.1875 -38.914062 Z M 26.835938 -15.65625 L 26.835938 -25.941406 L 33.546875 -25.941406 C 36.765625 -25.941406 38.464844 -23.972656 38.464844 -20.394531 C 38.464844 -17.355469 36.765625 -15.65625 33.546875 -15.65625 Z M 26.835938 -15.65625 "/></g></g></g><g fill="#000000" fill-opacity="1"><g transform="translate(86.957063, 139.1044)"><g><path d="M 26.210938 1.609375 C 41.597656 1.609375 51.257812 -7.960938 51.257812 -23.257812 C 51.257812 -38.554688 41.597656 -48.125 26.210938 -48.125 C 10.824219 -48.125 1.164062 -38.554688 1.164062 -23.257812 C 1.164062 -7.960938 10.824219 1.609375 26.210938 1.609375 Z M 26.210938 -15.207031 C 23.167969 -15.207031 21.46875 -17.890625 21.46875 -23.257812 C 21.46875 -28.625 23.167969 -31.308594 26.210938 -31.308594 C 29.25 -31.308594 30.863281 -28.625 30.863281 -23.257812 C 30.863281 -17.890625 29.25 -15.207031 26.210938 -15.207031 Z M 26.210938 -15.207031 "/></g></g></g><g fill="#000000" fill-opacity="1"><g transform="translate(139.2847, 139.1044)"><g><path d="M 33.8125 -47.410156 C 28.535156 -47.410156 24.0625 -43.921875 21.917969 -37.839844 L 21.828125 -37.839844 L 18.785156 -46.515625 L 2.238281 -46.515625 L 2.238281 0 L 22.8125 0 L 22.8125 -26.835938 C 22.8125 -30.773438 24.152344 -33.097656 26.390625 -33.097656 C 28.714844 -33.097656 30.144531 -30.59375 30.234375 -25.226562 L 47.410156 -29.519531 C 46.875 -40.792969 41.773438 -47.410156 33.8125 -47.410156 Z M 33.8125 -47.410156 "/></g></g></g><g fill="#000000" fill-opacity="1"><g transform="translate(187.408244, 139.1044)"><g><path d="M 33.8125 -47.410156 C 28.535156 -47.410156 24.0625 -43.921875 21.917969 -37.839844 L 21.828125 -37.839844 L 18.785156 -46.515625 L 2.238281 -46.515625 L 2.238281 0 L 22.8125 0 L 22.8125 -26.835938 C 22.8125 -30.773438 24.152344 -33.097656 26.390625 -33.097656 C 28.714844 -33.097656 30.144531 -30.59375 30.234375 -25.226562 L 47.410156 -29.519531 C 46.875 -40.792969 41.773438 -47.410156 33.8125 -47.410156 Z M 33.8125 -47.410156 "/></g></g></g><g fill="#000000" fill-opacity="1"><g transform="translate(235.531787, 139.1044)"><g><path d="M 26.210938 1.609375 C 41.597656 1.609375 51.257812 -7.960938 51.257812 -23.257812 C 51.257812 -38.554688 41.597656 -48.125 26.210938 -48.125 C 10.824219 -48.125 1.164062 -38.554688 1.164062 -23.257812 C 1.164062 -7.960938 10.824219 1.609375 26.210938 1.609375 Z M 26.210938 -15.207031 C 23.167969 -15.207031 21.46875 -17.890625 21.46875 -23.257812 C 21.46875 -28.625 23.167969 -31.308594 26.210938 -31.308594 C 29.25 -31.308594 30.863281 -28.625 30.863281 -23.257812 C 30.863281 -17.890625 29.25 -15.207031 26.210938 -15.207031 Z M 26.210938 -15.207031 "/></g></g></g><g fill="#000000" fill-opacity="1"><g transform="translate(287.859425, 139.1044)"><g><path d="M 11.539062 0 L 33.457031 0 L 40.074219 -25.046875 L 40.253906 -25.046875 L 46.875 0 L 68.789062 0 L 80.242188 -46.515625 L 59.84375 -46.515625 L 55.550781 -18.875 L 55.460938 -18.875 L 48.125 -46.515625 L 32.113281 -46.515625 L 24.777344 -19.5 L 24.691406 -19.5 L 20.484375 -46.515625 L 0 -46.515625 Z M 11.539062 0 "/></g></g></g><g fill="#ffffff" fill-opacity="1"><g transform="translate(15.249849, 135.374567)"><g><path d="M 3.578125 0 L 38.734375 0 C 53.582031 0 61.722656 -6.351562 61.722656 -17.621094 C 61.722656 -25.941406 57.25 -31.21875 49.199219 -32.5625 L 49.199219 -32.742188 C 56.714844 -34.53125 60.828125 -39.539062 60.828125 -46.964844 C 60.828125 -58.144531 52.421875 -64.40625 37.300781 -64.40625 L 3.578125 -64.40625 Z M 26.835938 -38.914062 L 26.835938 -48.753906 L 33.1875 -48.753906 C 36.320312 -48.753906 38.019531 -47.054688 38.019531 -44.011719 C 38.019531 -40.792969 36.320312 -38.914062 33.1875 -38.914062 Z M 26.835938 -15.65625 L 26.835938 -25.941406 L 33.546875 -25.941406 C 36.765625 -25.941406 38.464844 -23.972656 38.464844 -20.394531 C 38.464844 -17.355469 36.765625 -15.65625 33.546875 -15.65625 Z M 26.835938 -15.65625 "/></g></g></g><g fill="#ffffff" fill-opacity="1"><g transform="translate(78.579719, 135.374567)"><g><path d="M 26.210938 1.609375 C 41.597656 1.609375 51.257812 -7.960938 51.257812 -23.257812 C 51.257812 -38.554688 41.597656 -48.125 26.210938 -48.125 C 10.824219 -48.125 1.164062 -38.554688 1.164062 -23.257812 C 1.164062 -7.960938 10.824219 1.609375 26.210938 1.609375 Z M 26.210938 -15.207031 C 23.167969 -15.207031 21.46875 -17.890625 21.46875 -23.257812 C 21.46875 -28.625 23.167969 -31.308594 26.210938 -31.308594 C 29.25 -31.308594 30.863281 -28.625 30.863281 -23.257812 C 30.863281 -17.890625 29.25 -15.207031 26.210938 -15.207031 Z M 26.210938 -15.207031 "/></g></g></g><g fill="#ffffff" fill-opacity="1"><g transform="translate(130.907357, 135.374567)"><g><path d="M 33.8125 -47.410156 C 28.535156 -47.410156 24.0625 -43.921875 21.917969 -37.839844 L 21.828125 -37.839844 L 18.785156 -46.515625 L 2.238281 -46.515625 L 2.238281 0 L 22.8125 0 L 22.8125 -26.835938 C 22.8125 -30.773438 24.152344 -33.097656 26.390625 -33.097656 C 28.714844 -33.097656 30.144531 -30.59375 30.234375 -25.226562 L 47.410156 -29.519531 C 46.875 -40.792969 41.773438 -47.410156 33.8125 -47.410156 Z M 33.8125 -47.410156 "/></g></g></g><g fill="#ffffff" fill-opacity="1"><g transform="translate(179.0309, 135.374567)"><g><path d="M 33.8125 -47.410156 C 28.535156 -47.410156 24.0625 -43.921875 21.917969 -37.839844 L 21.828125 -37.839844 L 18.785156 -46.515625 L 2.238281 -46.515625 L 2.238281 0 L 22.8125 0 L 22.8125 -26.835938 C 22.8125 -30.773438 24.152344 -33.097656 26.390625 -33.097656 C 28.714844 -33.097656 30.144531 -30.59375 30.234375 -25.226562 L 47.410156 -29.519531 C 46.875 -40.792969 41.773438 -47.410156 33.8125 -47.410156 Z M 33.8125 -47.410156 "/></g></g></g><g fill="#ffffff" fill-opacity="1"><g transform="translate(227.154443, 135.374567)"><g><path d="M 26.210938 1.609375 C 41.597656 1.609375 51.257812 -7.960938 51.257812 -23.257812 C 51.257812 -38.554688 41.597656 -48.125 26.210938 -48.125 C 10.824219 -48.125 1.164062 -38.554688 1.164062 -23.257812 C 1.164062 -7.960938 10.824219 1.609375 26.210938 1.609375 Z M 26.210938 -15.207031 C 23.167969 -15.207031 21.46875 -17.890625 21.46875 -23.257812 C 21.46875 -28.625 23.167969 -31.308594 26.210938 -31.308594 C 29.25 -31.308594 30.863281 -28.625 30.863281 -23.257812 C 30.863281 -17.890625 29.25 -15.207031 26.210938 -15.207031 Z M 26.210938 -15.207031 "/></g></g></g><g fill="#ffffff" fill-opacity="1"><g transform="translate(279.482081, 135.374567)"><g><path d="M 11.539062 0 L 33.457031 0 L 40.074219 -25.046875 L 40.253906 -25.046875 L 46.875 0 L 68.789062 0 L 80.242188 -46.515625 L 59.84375 -46.515625 L 55.550781 -18.875 L 55.460938 -18.875 L 48.125 -46.515625 L 32.113281 -46.515625 L 24.777344 -19.5 L 24.691406 -19.5 L 20.484375 -46.515625 L 0 -46.515625 Z M 11.539062 0 "/></g></g></g></svg>