<svg xmlns="http://www.w3.org/2000/svg" xmlns:xlink="http://www.w3.org/1999/xlink" width="500" zoomAndPan="magnify" viewBox="0 0 375 225" height="300" preserveAspectRatio="xMidYMid meet" version="1.0"><defs><g/></defs><rect x="-37.5" width="450" fill="#ffffff" y="-22.5" height="270" fill-opacity="1"/><rect x="-37.5" width="450" fill="#ffffff" y="-22.5" height="270" fill-opacity="1"/><rect x="-37.5" width="450" fill="#38b6ff" y="-22.5" height="270" fill-opacity="1"/><g fill="#000000" fill-opacity="1"><g transform="translate(42.721213, 154.850206)"><g><path d="M 3.726562 0 L 49.390625 0 L 49.390625 -18.636719 L 27.027344 -18.636719 L 27.027344 -26.09375 L 44.730469 -26.09375 L 44.730469 -41.9375 L 27.027344 -41.9375 L 27.027344 -48.460938 L 48.460938 -48.460938 L 48.460938 -67.097656 L 3.726562 -67.097656 Z M 3.726562 0 "/></g></g></g><g fill="#000000" fill-opacity="1"><g transform="translate(93.787567, 154.850206)"><g><path d="M 3.726562 0 L 25.628906 0 L 25.628906 -39.140625 L 25.8125 -39.140625 L 45.199219 0 L 72.691406 0 L 72.691406 -67.097656 L 50.789062 -67.097656 L 50.789062 -27.769531 L 50.601562 -27.769531 L 31.21875 -67.097656 L 3.726562 -67.097656 Z M 3.726562 0 "/></g></g></g><g fill="#000000" fill-opacity="1"><g transform="translate(170.200728, 154.850206)"><g><path d="M 17.707031 0 L 41.9375 0 L 41.9375 -46.597656 L 57.777344 -46.597656 L 57.777344 -67.097656 L 1.863281 -67.097656 L 1.863281 -46.597656 L 17.707031 -46.597656 Z M 17.707031 0 "/></g></g></g><g fill="#000000" fill-opacity="1"><g transform="translate(229.840274, 154.850206)"><g><path d="M 3.726562 0 L 49.390625 0 L 49.390625 -18.636719 L 27.027344 -18.636719 L 27.027344 -26.09375 L 44.730469 -26.09375 L 44.730469 -41.9375 L 27.027344 -41.9375 L 27.027344 -48.460938 L 48.460938 -48.460938 L 48.460938 -67.097656 L 3.726562 -67.097656 Z M 3.726562 0 "/></g></g></g><g fill="#000000" fill-opacity="1"><g transform="translate(280.906628, 154.850206)"><g><path d="M 52.28125 1.398438 C 57.964844 1.398438 64.117188 -0.464844 68.03125 -3.355469 L 65.140625 -13.886719 C 64.210938 -13.417969 62.996094 -12.953125 61.878906 -12.953125 C 60.480469 -12.953125 59.363281 -14.070312 58.992188 -15.9375 L 58.246094 -19.664062 C 57.40625 -23.296875 56.101562 -25.8125 52.46875 -26.933594 L 52.46875 -27.027344 C 60.109375 -29.820312 64.300781 -36.160156 64.300781 -44.640625 C 64.300781 -59.082031 54.238281 -67.097656 35.972656 -67.097656 L 3.726562 -67.097656 L 3.726562 0 L 27.957031 0 L 27.957031 -22.367188 L 30.660156 -22.367188 C 33.082031 -22.367188 34.480469 -20.503906 35.039062 -18.265625 L 36.4375 -11.460938 C 38.207031 -3.632812 44.078125 1.398438 52.28125 1.398438 Z M 27.957031 -37.277344 L 27.957031 -50.324219 L 33.457031 -50.324219 C 37.742188 -50.324219 40.074219 -47.992188 40.074219 -43.800781 C 40.074219 -39.605469 37.742188 -37.277344 33.457031 -37.277344 Z M 27.957031 -37.277344 "/></g></g></g><g fill="#ffffff" fill-opacity="1"><g transform="translate(34.160872, 148.399527)"><g><path d="M 3.726562 0 L 49.390625 0 L 49.390625 -18.636719 L 27.027344 -18.636719 L 27.027344 -26.09375 L 44.730469 -26.09375 L 44.730469 -41.9375 L 27.027344 -41.9375 L 27.027344 -48.460938 L 48.460938 -48.460938 L 48.460938 -67.097656 L 3.726562 -67.097656 Z M 3.726562 0 "/></g></g></g><g fill="#ffffff" fill-opacity="1"><g transform="translate(85.227226, 148.399527)"><g><path d="M 3.726562 0 L 25.628906 0 L 25.628906 -39.140625 L 25.8125 -39.140625 L 45.199219 0 L 72.691406 0 L 72.691406 -67.097656 L 50.789062 -67.097656 L 50.789062 -27.769531 L 50.601562 -27.769531 L 31.21875 -67.097656 L 3.726562 -67.097656 Z M 3.726562 0 "/></g></g></g><g fill="#ffffff" fill-opacity="1"><g transform="translate(161.640388, 148.399527)"><g><path d="M 17.707031 0 L 41.9375 0 L 41.9375 -46.597656 L 57.777344 -46.597656 L 57.777344 -67.097656 L 1.863281 -67.097656 L 1.863281 -46.597656 L 17.707031 -46.597656 Z M 17.707031 0 "/></g></g></g><g fill="#ffffff" fill-opacity="1"><g transform="translate(221.279933, 148.399527)"><g><path d="M 3.726562 0 L 49.390625 0 L 49.390625 -18.636719 L 27.027344 -18.636719 L 27.027344 -26.09375 L 44.730469 -26.09375 L 44.730469 -41.9375 L 27.027344 -41.9375 L 27.027344 -48.460938 L 48.460938 -48.460938 L 48.460938 -67.097656 L 3.726562 -67.097656 Z M 3.726562 0 "/></g></g></g><g fill="#ffffff" fill-opacity="1"><g transform="translate(272.346287, 148.399527)"><g><path d="M 52.28125 1.398438 C 57.964844 1.398438 64.117188 -0.464844 68.03125 -3.355469 L 65.140625 -13.886719 C 64.210938 -13.417969 62.996094 -12.953125 61.878906 -12.953125 C 60.480469 -12.953125 59.363281 -14.070312 58.992188 -15.9375 L 58.246094 -19.664062 C 57.40625 -23.296875 56.101562 -25.8125 52.46875 -26.933594 L 52.46875 -27.027344 C 60.109375 -29.820312 64.300781 -36.160156 64.300781 -44.640625 C 64.300781 -59.082031 54.238281 -67.097656 35.972656 -67.097656 L 3.726562 -67.097656 L 3.726562 0 L 27.957031 0 L 27.957031 -22.367188 L 30.660156 -22.367188 C 33.082031 -22.367188 34.480469 -20.503906 35.039062 -18.265625 L 36.4375 -11.460938 C 38.207031 -3.632812 44.078125 1.398438 52.28125 1.398438 Z M 27.957031 -37.277344 L 27.957031 -50.324219 L 33.457031 -50.324219 C 37.742188 -50.324219 40.074219 -47.992188 40.074219 -43.800781 C 40.074219 -39.605469 37.742188 -37.277344 33.457031 -37.277344 Z M 27.957031 -37.277344 "/></g></g></g></svg>