<svg xmlns="http://www.w3.org/2000/svg" xmlns:xlink="http://www.w3.org/1999/xlink" width="500" zoomAndPan="magnify" viewBox="0 0 375 225" height="300" preserveAspectRatio="xMidYMid meet" version="1.0"><path stroke-linecap="butt" transform="matrix(0.75, 0, 0, 0.75, 0, 54.922717)" fill="none" stroke-linejoin="miter" d="M 155.656256 51.222838 C 166.750007 51.222838 174.484382 44.347838 175.447924 33.842629 L 162.593757 32.514504 C 161.95834 36.665546 159.338548 39.337421 155.822923 39.337421 C 151.812506 39.337421 149.260423 36.030129 149.260423 30.795754 C 149.260423 25.472837 151.447923 22.113462 154.859381 22.113462 C 157.843757 22.113462 159.666673 24.509296 160.250007 28.295754 L 172.880216 26.056171 C 172.036466 16.514504 164.98959 10.379087 154.703131 10.379087 C 142.906256 10.379087 135.395839 18.321795 135.395839 30.795754 C 135.395839 43.175963 143.286464 51.222838 155.656256 51.222838 Z M 184.625008 50.483255 C 188.567716 50.483255 191.703133 48.399922 193.255216 45.196797 L 193.3073 45.196797 L 193.46355 45.728047 C 194.166675 48.504088 197.421883 50.587422 201.468758 50.587422 C 204.296884 50.587422 207.500009 49.946797 209.739592 48.347838 L 208.239592 42.264505 C 207.708342 42.59263 206.96355 42.853046 206.380217 42.853046 C 205.520842 42.853046 205.036467 42.212421 205.036467 41.040546 L 205.036467 33.462421 C 205.036467 25.952004 199.921883 21.306171 191.223966 21.306171 C 182.906258 21.306171 177.734382 25.472837 177.578132 32.238463 L 189.411466 32.983254 C 189.635425 30.691588 190.270841 29.311379 191.4948 29.311379 C 192.343758 29.311379 192.9948 29.998879 192.9948 31.446796 C 192.9948 32.827004 192.187508 33.358254 191.1198 33.462421 L 187.812508 33.790546 C 180.989591 34.425963 176.354174 37.358255 176.354174 42.853046 C 176.354174 47.603047 179.661466 50.483255 184.625008 50.483255 Z M 190.479175 42.74888 C 189.411466 42.74888 188.671883 42.056171 188.671883 41.040546 C 188.671883 39.868671 189.567716 39.009296 191.4948 38.853046 L 192.942716 38.74888 L 192.942716 39.545755 C 192.942716 41.524921 191.875008 42.74888 190.479175 42.74888 Z M 229.890635 21.733254 C 226.750009 21.733254 224.083343 23.816587 222.807301 27.436379 L 222.739593 27.436379 L 220.932301 22.269712 L 211.062509 22.269712 L 211.062509 49.99888 L 223.328134 49.99888 L 223.328134 33.998879 C 223.328134 31.655129 224.135426 30.259296 225.463551 30.259296 C 226.854176 30.259296 227.703134 31.759296 227.755218 34.962421 L 238.00001 32.394713 C 237.677093 25.681171 234.640635 21.733254 229.890635 21.733254 Z M 248.723969 50.535338 C 252.135427 50.535338 255.062511 48.670755 256.390636 44.884297 L 256.442719 44.884297 L 258.046886 49.99888 L 268.447928 49.99888 L 268.447928 10.004087 L 256.182302 10.004087 L 256.182302 27.228046 L 256.130219 27.228046 C 254.739594 23.597837 252.015636 21.733254 248.723969 21.733254 C 242.848968 21.733254 239.114593 27.123879 239.114593 36.134296 C 239.114593 45.144713 242.848968 50.535338 248.723969 50.535338 Z M 254.046886 40.40513 C 252.395844 40.40513 251.380219 38.853046 251.380219 36.134296 C 251.380219 33.410338 252.395844 31.863463 254.046886 31.863463 C 255.703136 31.863463 256.718761 33.410338 256.718761 36.134296 C 256.718761 38.853046 255.703136 40.40513 254.046886 40.40513 Z M 278.427095 50.483255 C 282.369803 50.483255 285.510429 48.399922 287.057304 45.196797 L 287.109387 45.196797 L 287.265637 45.728047 C 287.968762 48.504088 291.22397 50.587422 295.276054 50.587422 C 298.098971 50.587422 301.302096 49.946797 303.541679 48.347838 L 302.046888 42.264505 C 301.510429 42.59263 300.770846 42.853046 300.182304 42.853046 C 299.322929 42.853046 298.843762 42.212421 298.843762 41.040546 L 298.843762 33.462421 C 298.843762 25.952004 293.723971 21.306171 285.026054 21.306171 C 276.708345 21.306171 271.53647 25.472837 271.385428 32.238463 L 283.218762 32.983254 C 283.437512 30.691588 284.078137 29.311379 285.302095 29.311379 C 286.145845 29.311379 286.796887 29.998879 286.796887 31.446796 C 286.796887 32.827004 285.989595 33.358254 284.921887 33.462421 L 281.614595 33.790546 C 274.791678 34.425963 270.16147 37.358255 270.16147 42.853046 C 270.16147 47.603047 273.463553 50.483255 278.427095 50.483255 Z M 284.28647 42.74888 C 283.218762 42.74888 282.47397 42.056171 282.47397 41.040546 C 282.47397 39.868671 283.375012 39.009296 285.302095 38.853046 L 286.744804 38.74888 L 286.744804 39.545755 C 286.744804 41.524921 285.677095 42.74888 284.28647 42.74888 Z M 325.296889 21.733254 C 321.453138 21.733254 318.19793 24.024921 316.609388 27.863462 L 316.546888 27.863462 L 314.734388 22.269712 L 304.864596 22.269712 L 304.864596 49.99888 L 317.130222 49.99888 L 317.130222 34.269713 C 317.130222 32.514504 317.937513 31.446796 319.213555 31.446796 C 320.281263 31.446796 320.869805 32.238463 320.869805 33.634296 L 320.869805 49.99888 L 333.130222 49.99888 L 333.130222 29.842629 C 333.130222 24.780129 330.098972 21.733254 325.296889 21.733254 Z M 350.093765 50.962422 C 359.270848 50.962422 365.026057 45.24888 365.026057 36.134296 C 365.026057 27.019712 359.270848 21.306171 350.093765 21.306171 C 340.927098 21.306171 335.156264 27.019712 335.156264 36.134296 C 335.156264 45.24888 340.927098 50.962422 350.093765 50.962422 Z M 350.093765 40.93638 C 348.281265 40.93638 347.265639 39.337421 347.265639 36.134296 C 347.265639 32.931171 348.281265 31.327004 350.093765 31.327004 C 351.901056 31.327004 352.864598 32.931171 352.864598 36.134296 C 352.864598 39.337421 351.901056 40.93638 350.093765 40.93638 Z M 350.093765 40.93638 " stroke="#ffffff" stroke-width="1.999999" stroke-opacity="1" stroke-miterlimit="4"/><path stroke-linecap="butt" transform="matrix(0.75, 0, 0, 0.75, 0, 54.922717)" fill="none" stroke-linejoin="miter" d="M 110.526046 123.998883 L 136.656256 123.998883 L 136.656256 113.337424 L 123.85938 113.337424 L 123.85938 109.066591 L 133.989589 109.066591 L 133.989589 100.00409 L 123.85938 100.00409 L 123.85938 96.269715 L 136.125006 96.269715 L 136.125006 85.603048 L 110.526046 85.603048 Z M 152.755215 124.962425 C 160.921882 124.962425 166.192715 120.004091 166.89584 112.113466 L 155.697923 110.769716 C 155.531256 113.702008 154.630215 115.300966 153.135423 115.300966 C 151.58334 115.300966 150.619798 113.493674 150.567715 110.134299 C 150.515631 106.722841 151.375006 104.910341 152.807298 104.910341 C 154.046881 104.910341 154.942715 106.238466 155.046881 109.441591 L 166.088549 106.983257 C 165.192715 99.78534 160.17709 95.306174 152.494798 95.306174 C 143.953131 95.306174 138.302089 101.019716 138.302089 110.134299 C 138.302089 119.248883 143.953131 124.962425 152.755215 124.962425 Z M 183.208341 124.962425 C 192.385425 124.962425 198.140633 119.248883 198.140633 110.134299 C 198.140633 101.019716 192.385425 95.306174 183.208341 95.306174 C 174.041674 95.306174 168.276049 101.019716 168.276049 110.134299 C 168.276049 119.248883 174.041674 124.962425 183.208341 124.962425 Z M 183.208341 114.936383 C 181.401049 114.936383 180.385424 113.337424 180.385424 110.134299 C 180.385424 106.931174 181.401049 105.327007 183.208341 105.327007 C 185.020841 105.327007 185.984383 106.931174 185.984383 110.134299 C 185.984383 113.337424 185.020841 114.936383 183.208341 114.936383 Z M 212.750009 124.795758 C 220.968759 124.795758 226.619801 121.550966 226.619801 115.248883 C 226.619801 110.665549 223.739593 107.998882 217.557301 106.670757 L 214.197926 105.915549 C 211.52605 105.274924 210.406259 104.795757 210.406259 103.790549 C 210.406259 102.983257 211.203134 102.399924 212.437509 102.399924 C 213.921884 102.399924 214.885426 103.311382 214.937509 105.118674 L 225.187509 104.379091 C 224.703134 98.12909 219.260426 95.47284 212.973967 95.47284 C 205.291675 95.47284 200.281258 98.780132 200.281258 105.014507 C 200.281258 109.441591 202.677092 111.993674 208.270842 113.181174 L 211.578134 113.868674 C 214.354176 114.457216 215.578134 114.988466 215.578134 116.212424 C 215.578134 117.0718 214.562509 117.712425 213.130217 117.712425 C 211.317717 117.712425 210.031259 116.592633 209.822925 114.665549 L 199.473967 115.577008 C 199.796883 122.295758 205.500009 124.795758 212.750009 124.795758 Z M 239.901052 136.160342 C 250.34376 136.160342 257.010427 130.457217 257.010427 121.332216 L 257.010427 96.269715 L 244.744802 96.269715 L 244.744802 111.462424 C 244.744802 113.285341 244.005219 114.405133 242.729177 114.405133 C 241.661468 114.405133 241.020843 113.389508 241.020843 111.681174 L 241.020843 96.269715 L 228.755218 96.269715 L 228.755218 114.405133 C 228.755218 120.431175 231.791676 123.998883 236.958343 123.998883 C 240.43751 123.998883 243.364593 121.707216 244.916677 117.868675 L 244.96876 117.868675 L 244.96876 120.264508 C 244.96876 123.9468 242.401052 126.29055 238.302093 126.29055 C 235.578135 126.29055 232.270843 125.4468 229.708343 123.998883 L 226.723968 133.113467 C 230.291676 135.092634 235.359385 136.160342 239.901052 136.160342 Z M 272.31772 124.795758 C 280.53647 124.795758 286.187512 121.550966 286.187512 115.248883 C 286.187512 110.665549 283.307303 107.998882 277.125012 106.670757 L 273.765636 105.915549 C 271.093761 105.274924 269.97397 104.795757 269.97397 103.790549 C 269.97397 102.983257 270.770845 102.399924 272.00522 102.399924 C 273.489595 102.399924 274.453136 103.311382 274.50522 105.118674 L 284.75522 104.379091 C 284.270845 98.12909 278.828137 95.47284 272.541678 95.47284 C 264.859386 95.47284 259.848969 98.780132 259.848969 105.014507 C 259.848969 109.441591 262.239594 111.993674 267.838553 113.181174 L 271.145845 113.868674 C 273.921886 114.457216 275.145845 114.988466 275.145845 116.212424 C 275.145845 117.0718 274.13022 117.712425 272.697928 117.712425 C 270.885428 117.712425 269.59897 116.592633 269.390636 114.665549 L 259.041677 115.577008 C 259.364594 122.295758 265.067719 124.795758 272.31772 124.795758 Z M 303.312513 124.795758 C 306.932304 124.795758 310.239596 123.894716 313.218763 122.087425 L 311.359388 113.545758 C 309.651055 114.613466 308.47918 115.040549 306.828138 115.040549 C 305.015638 115.040549 303.572929 113.816591 303.572929 111.097841 L 303.572929 105.327007 L 312.098971 105.327007 L 312.098971 96.269715 L 303.572929 96.269715 L 303.572929 86.931173 L 291.307304 89.603048 L 291.307304 96.269715 L 287.307304 96.269715 L 287.307304 105.327007 L 291.307304 105.327007 L 291.307304 113.493674 C 291.307304 120.483258 295.354179 124.795758 303.312513 124.795758 Z M 330.817722 124.962425 C 336.739597 124.962425 342.130223 122.087425 343.838556 117.712425 L 335.828139 114.233258 C 334.828139 115.837424 332.953139 116.800966 330.984389 116.800966 C 328.630222 116.800966 327.04168 115.577008 326.817722 113.337424 L 343.093764 113.337424 C 343.458348 112.269716 343.682306 110.509299 343.682306 108.962424 C 343.682306 100.691591 338.015639 95.306174 329.437514 95.306174 C 320.427097 95.306174 314.557305 101.175966 314.609388 110.134299 C 314.609388 119.04055 321.114597 124.962425 330.817722 124.962425 Z M 326.765639 107.514507 C 326.921889 104.962424 327.88543 103.363466 329.38543 103.363466 C 330.817722 103.363466 331.72918 104.962424 331.72918 107.514507 Z M 345.963556 123.998883 L 358.229182 123.998883 L 358.229182 108.530133 C 358.229182 106.827007 358.98439 105.863466 360.260432 105.863466 C 361.375015 105.863466 362.01564 106.670757 362.01564 108.050966 L 362.01564 123.998883 L 374.281266 123.998883 L 374.281266 108.530133 C 374.281266 106.827007 375.036474 105.863466 376.312516 105.863466 C 377.380224 105.863466 378.015641 106.670757 378.015641 108.050966 L 378.015641 123.998883 L 390.281266 123.998883 L 390.281266 104.795757 C 390.281266 99.092632 387.562516 95.733257 382.979183 95.733257 C 378.875016 95.733257 375.515641 98.077007 373.968766 102.295757 L 373.916682 102.295757 C 373.005224 98.024924 370.229182 95.733257 366.182307 95.733257 C 362.23439 95.733257 358.82814 98.248882 357.432307 102.347841 L 357.380223 102.347841 L 355.572931 96.269715 L 345.963556 96.269715 Z M 345.963556 123.998883 " stroke="#ffffff" stroke-width="1.999999" stroke-opacity="1" stroke-miterlimit="4"/></svg>