<svg xmlns="http://www.w3.org/2000/svg" xmlns:xlink="http://www.w3.org/1999/xlink" width="500" zoomAndPan="magnify" viewBox="0 0 375 225" height="300" preserveAspectRatio="xMidYMid meet" version="1.0"><path stroke-linecap="butt" transform="matrix(0.75, 0, 0, 0.75, 85.778317, 49.976266)" fill="none" stroke-linejoin="miter" d="M 4.790369 113.0004 L 60.847663 113.0004 L 60.847663 86.760815 L 35.805995 86.760815 L 35.805995 27.120188 L 4.790369 27.120188 Z M 101.024748 115.15665 C 114.274748 115.15665 126.332041 108.719149 130.144541 98.932691 L 112.23829 91.156649 C 109.993498 94.739982 105.80079 96.896232 101.404956 96.896232 C 96.134123 96.896232 92.582039 94.156649 92.087248 89.15144 L 128.488291 89.15144 C 129.300791 86.760815 129.795582 82.828523 129.795582 79.364982 C 129.795582 60.875397 117.128915 48.818105 97.936206 48.818105 C 77.785164 48.818105 64.654955 61.948314 64.769538 81.984773 C 64.769538 101.906649 79.332039 115.15665 101.024748 115.15665 Z M 91.967456 76.130606 C 92.316414 70.427481 94.472664 66.844148 97.821623 66.844148 C 101.024748 66.844148 103.066415 70.427481 103.066415 76.130606 Z M 180.587251 49.776439 C 171.993501 49.776439 164.712251 54.901439 161.160167 63.495189 L 161.014334 63.495189 L 156.967459 50.974355 L 134.894541 50.974355 L 134.894541 113.0004 L 162.326834 113.0004 L 162.326834 77.823315 C 162.326834 73.891023 164.128917 71.500398 166.983084 71.500398 C 169.373709 71.500398 170.681001 73.27644 170.681001 76.396231 L 170.681001 113.0004 L 198.113294 113.0004 L 198.113294 67.922273 C 198.113294 56.594147 191.332043 49.776439 180.587251 49.776439 Z M 224.134128 114.193108 C 231.764337 114.193108 238.31642 110.031649 241.28517 101.557691 L 241.399754 101.557691 L 244.983087 113.0004 L 268.248713 113.0004 L 268.248713 23.542063 L 240.81642 23.542063 L 240.81642 62.068106 L 240.701837 62.068106 C 237.587254 53.943105 231.498712 49.776439 224.134128 49.776439 C 210.998711 49.776439 202.639335 61.833731 202.639335 81.984773 C 202.639335 102.135816 210.998711 114.193108 224.134128 114.193108 Z M 236.040379 91.536857 C 232.342462 91.536857 230.071628 88.073315 230.071628 81.984773 C 230.071628 75.90144 232.342462 72.43269 236.040379 72.43269 C 239.743504 72.43269 242.014337 75.90144 242.014337 81.984773 C 242.014337 88.073315 239.743504 91.536857 236.040379 91.536857 Z M 236.040379 91.536857 " stroke="#ffffff" stroke-width="4.473225" stroke-opacity="1" stroke-miterlimit="4"/></svg>