<svg xmlns="http://www.w3.org/2000/svg" xmlns:xlink="http://www.w3.org/1999/xlink" width="500" zoomAndPan="magnify" viewBox="0 0 375 225" height="300" preserveAspectRatio="xMidYMid meet" version="1.0"><path stroke-linecap="butt" transform="matrix(0.75, 0, 0, 0.75, 32.771483, 49.976266)" fill="none" stroke-linejoin="miter" d="M 47.731775 115.739983 C 72.544276 115.739983 89.841151 100.359774 91.997401 76.859773 L 63.252608 73.891023 C 61.825525 83.177482 55.971358 89.15144 48.111983 89.15144 C 39.143232 89.15144 33.434899 81.755607 33.434899 70.047273 C 33.434899 58.135814 38.325524 50.620189 45.955733 50.620189 C 52.6224 50.620189 56.700525 55.979564 58.013025 64.453523 L 86.257818 59.448314 C 84.367193 38.099355 68.611984 24.385813 45.606774 24.385813 C 19.221357 24.385813 2.419273 42.14623 2.419273 70.047273 C 2.419273 97.739982 20.065107 115.739983 47.731775 115.739983 Z M 97.955735 113.0004 L 125.966153 113.0004 L 125.966153 62.911856 L 126.231778 62.911856 L 151.03907 113.0004 L 186.221364 113.0004 L 186.221364 27.120188 L 158.174487 27.120188 L 158.174487 77.443106 L 157.945321 77.443106 L 133.13282 27.120188 L 97.955735 27.120188 Z M 195.752614 113.0004 L 226.763032 113.0004 L 226.763032 86.760815 L 247.033866 86.760815 L 247.033866 64.104564 L 226.763032 64.104564 L 226.763032 53.359772 L 254.195325 53.359772 L 254.195325 27.120188 L 195.752614 27.120188 Z M 278.632826 113.0004 L 309.643244 113.0004 L 309.643244 53.359772 L 329.94012 53.359772 L 329.94012 27.120188 L 258.361992 27.120188 L 258.361992 53.359772 L 278.632826 53.359772 Z M 372.028663 115.739983 C 395.528664 115.739983 411.398456 104.875399 411.398456 85.568107 C 411.398456 70.193106 402.690123 61.948314 382.393247 58.250397 L 374.179705 56.823314 C 367.367204 55.630606 364.861996 53.943105 364.861996 50.974355 C 364.861996 47.885814 367.367204 45.849355 371.179705 45.849355 C 375.606788 45.849355 379.075538 49.193105 379.424497 54.786856 L 406.507831 49.547272 C 405.195331 33.672271 390.63283 24.385813 372.028663 24.385813 C 350.070329 24.385813 335.653661 35.099355 335.653661 53.359772 C 335.653661 68.734773 344.361995 76.979565 364.747413 80.906648 L 373.10158 82.453523 C 379.653663 83.646232 382.278663 85.453523 382.278663 88.536857 C 382.278663 91.885815 378.69533 93.927482 373.57033 93.927482 C 367.367204 93.927482 362.851579 90.344149 362.127621 83.411857 L 334.341161 87.83894 C 335.768245 106.562899 350.799495 115.739983 372.028663 115.739983 Z M 372.028663 115.739983 " stroke="#ffffff" stroke-width="4.473225" stroke-opacity="1" stroke-miterlimit="4"/></svg>