<svg xmlns="http://www.w3.org/2000/svg" xmlns:xlink="http://www.w3.org/1999/xlink" width="300" zoomAndPan="magnify" viewBox="0 0 224.87999 225" height="300" preserveAspectRatio="xMidYMid meet" version="1.0"><defs><g/></defs><g fill="#000000" fill-opacity="0.9804"><g transform="translate(17.334667, 125.610487)"><g><path d="M 1.710938 0 L 21.804688 0 L 21.804688 -9.40625 L 12.828125 -9.40625 L 12.828125 -30.785156 L 1.710938 -30.785156 Z M 1.710938 0 "/></g></g></g><g fill="#000000" fill-opacity="0.9804"><g transform="translate(39.992462, 125.610487)"><g><path d="M 1.710938 0 L 22.660156 0 L 22.660156 -8.550781 L 12.398438 -8.550781 L 12.398438 -11.972656 L 20.523438 -11.972656 L 20.523438 -19.242188 L 12.398438 -19.242188 L 12.398438 -22.234375 L 22.234375 -22.234375 L 22.234375 -30.785156 L 1.710938 -30.785156 Z M 1.710938 0 "/></g></g></g><g fill="#000000" fill-opacity="0.9804"><g transform="translate(63.419759, 125.610487)"><g><path d="M 1.710938 0 L 11.757812 0 L 11.757812 -17.957031 L 11.84375 -17.957031 L 20.738281 0 L 33.351562 0 L 33.351562 -30.785156 L 23.300781 -30.785156 L 23.300781 -12.742188 L 23.21875 -12.742188 L 14.324219 -30.785156 L 1.710938 -30.785156 Z M 1.710938 0 "/></g></g></g><g fill="#000000" fill-opacity="0.9804"><g transform="translate(98.475212, 125.610487)"><g><path d="M 1.710938 0 L 15.050781 0 C 25.441406 0 31.210938 -5.515625 31.210938 -15.394531 C 31.210938 -25.269531 25.484375 -30.785156 15.179688 -30.785156 L 1.710938 -30.785156 Z M 12.398438 -8.550781 L 12.398438 -22.234375 L 14.964844 -22.234375 C 18.257812 -22.234375 20.097656 -19.796875 20.097656 -15.394531 C 20.097656 -10.988281 18.257812 -8.550781 14.964844 -8.550781 Z M 12.398438 -8.550781 "/></g></g></g><g fill="#000000" fill-opacity="0.9804"><g transform="translate(130.53812, 125.610487)"><g><path d="M 1.710938 0 L 12.828125 0 L 12.828125 -30.785156 L 1.710938 -30.785156 Z M 1.710938 0 "/></g></g></g><g fill="#000000" fill-opacity="0.9804"><g transform="translate(145.073308, 125.610487)"><g><path d="M 1.710938 0 L 11.757812 0 L 11.757812 -17.957031 L 11.84375 -17.957031 L 20.738281 0 L 33.351562 0 L 33.351562 -30.785156 L 23.300781 -30.785156 L 23.300781 -12.742188 L 23.21875 -12.742188 L 14.324219 -30.785156 L 1.710938 -30.785156 Z M 1.710938 0 "/></g></g></g><g fill="#000000" fill-opacity="0.9804"><g transform="translate(180.128761, 125.610487)"><g><path d="M 14.621094 0.769531 C 19.113281 0.769531 23.089844 -1.539062 24.671875 -5.257812 L 24.714844 -5.257812 L 25.527344 0 L 33.222656 0 L 33.222656 -17.957031 L 14.964844 -17.957031 L 14.964844 -11.972656 L 22.660156 -11.972656 C 22.320312 -9.792969 20.4375 -8.335938 17.871094 -8.335938 C 14.28125 -8.335938 11.972656 -11.203125 11.972656 -15.605469 C 11.972656 -19.710938 13.769531 -22.363281 16.546875 -22.363281 C 18.300781 -22.363281 19.753906 -21.121094 20.222656 -19.242188 L 30.441406 -20.949219 C 29.160156 -27.535156 23.730469 -31.769531 16.675781 -31.769531 C 7.054688 -31.769531 0.855469 -25.355469 0.855469 -15.394531 C 0.855469 -5.601562 6.285156 0.769531 14.621094 0.769531 Z M 14.621094 0.769531 "/></g></g></g><g fill="#ffffff" fill-opacity="1"><g transform="translate(13.744618, 123.096705)"><g><path d="M 1.710938 0 L 21.804688 0 L 21.804688 -9.40625 L 12.828125 -9.40625 L 12.828125 -30.785156 L 1.710938 -30.785156 Z M 1.710938 0 "/></g></g></g><g fill="#ffffff" fill-opacity="1"><g transform="translate(36.402413, 123.096705)"><g><path d="M 1.710938 0 L 22.660156 0 L 22.660156 -8.550781 L 12.398438 -8.550781 L 12.398438 -11.972656 L 20.523438 -11.972656 L 20.523438 -19.242188 L 12.398438 -19.242188 L 12.398438 -22.234375 L 22.234375 -22.234375 L 22.234375 -30.785156 L 1.710938 -30.785156 Z M 1.710938 0 "/></g></g></g><g fill="#ffffff" fill-opacity="1"><g transform="translate(59.82971, 123.096705)"><g><path d="M 1.710938 0 L 11.757812 0 L 11.757812 -17.957031 L 11.84375 -17.957031 L 20.738281 0 L 33.351562 0 L 33.351562 -30.785156 L 23.300781 -30.785156 L 23.300781 -12.742188 L 23.21875 -12.742188 L 14.324219 -30.785156 L 1.710938 -30.785156 Z M 1.710938 0 "/></g></g></g><g fill="#ffffff" fill-opacity="1"><g transform="translate(94.885162, 123.096705)"><g><path d="M 1.710938 0 L 15.050781 0 C 25.441406 0 31.210938 -5.515625 31.210938 -15.394531 C 31.210938 -25.269531 25.484375 -30.785156 15.179688 -30.785156 L 1.710938 -30.785156 Z M 12.398438 -8.550781 L 12.398438 -22.234375 L 14.964844 -22.234375 C 18.257812 -22.234375 20.097656 -19.796875 20.097656 -15.394531 C 20.097656 -10.988281 18.257812 -8.550781 14.964844 -8.550781 Z M 12.398438 -8.550781 "/></g></g></g><g fill="#ffffff" fill-opacity="1"><g transform="translate(126.948071, 123.096705)"><g><path d="M 1.710938 0 L 12.828125 0 L 12.828125 -30.785156 L 1.710938 -30.785156 Z M 1.710938 0 "/></g></g></g><g fill="#ffffff" fill-opacity="1"><g transform="translate(141.483259, 123.096705)"><g><path d="M 1.710938 0 L 11.757812 0 L 11.757812 -17.957031 L 11.84375 -17.957031 L 20.738281 0 L 33.351562 0 L 33.351562 -30.785156 L 23.300781 -30.785156 L 23.300781 -12.742188 L 23.21875 -12.742188 L 14.324219 -30.785156 L 1.710938 -30.785156 Z M 1.710938 0 "/></g></g></g><g fill="#ffffff" fill-opacity="1"><g transform="translate(176.538712, 123.096705)"><g><path d="M 14.621094 0.769531 C 19.113281 0.769531 23.089844 -1.539062 24.671875 -5.257812 L 24.714844 -5.257812 L 25.527344 0 L 33.222656 0 L 33.222656 -17.957031 L 14.964844 -17.957031 L 14.964844 -11.972656 L 22.660156 -11.972656 C 22.320312 -9.792969 20.4375 -8.335938 17.871094 -8.335938 C 14.28125 -8.335938 11.972656 -11.203125 11.972656 -15.605469 C 11.972656 -19.710938 13.769531 -22.363281 16.546875 -22.363281 C 18.300781 -22.363281 19.753906 -21.121094 20.222656 -19.242188 L 30.441406 -20.949219 C 29.160156 -27.535156 23.730469 -31.769531 16.675781 -31.769531 C 7.054688 -31.769531 0.855469 -25.355469 0.855469 -15.394531 C 0.855469 -5.601562 6.285156 0.769531 14.621094 0.769531 Z M 14.621094 0.769531 "/></g></g></g></svg>