<svg xmlns="http://www.w3.org/2000/svg" xmlns:xlink="http://www.w3.org/1999/xlink" width="500" zoomAndPan="magnify" viewBox="0 0 375 225" height="300" preserveAspectRatio="xMidYMid meet" version="1.0"><defs><g/></defs><g fill="#ffffff" fill-opacity="1"><g transform="translate(23.638054, 138.456083)"><g><path d="M 3.578125 0 L 38.734375 0 C 53.585938 0 61.726562 -6.351562 61.726562 -17.625 C 61.726562 -25.945312 57.253906 -31.222656 49.203125 -32.5625 L 49.203125 -32.742188 C 56.71875 -34.53125 60.832031 -39.542969 60.832031 -46.964844 C 60.832031 -58.148438 52.421875 -64.410156 37.304688 -64.410156 L 3.578125 -64.410156 Z M 26.839844 -38.914062 L 26.839844 -48.753906 L 33.191406 -48.753906 C 36.320312 -48.753906 38.019531 -47.054688 38.019531 -44.015625 C 38.019531 -40.792969 36.320312 -38.914062 33.191406 -38.914062 Z M 26.839844 -15.65625 L 26.839844 -25.945312 L 33.546875 -25.945312 C 36.769531 -25.945312 38.46875 -23.976562 38.46875 -20.398438 C 38.46875 -17.355469 36.769531 -15.65625 33.546875 -15.65625 Z M 26.839844 -15.65625 "/></g></g></g><g fill="#ffffff" fill-opacity="1"><g transform="translate(86.968065, 138.456083)"><g><path d="M 26.210938 1.609375 C 41.597656 1.609375 51.261719 -7.960938 51.261719 -23.257812 C 51.261719 -38.558594 41.597656 -48.128906 26.210938 -48.128906 C 10.824219 -48.128906 1.164062 -38.558594 1.164062 -23.257812 C 1.164062 -7.960938 10.824219 1.609375 26.210938 1.609375 Z M 26.210938 -15.207031 C 23.171875 -15.207031 21.46875 -17.890625 21.46875 -23.257812 C 21.46875 -28.628906 23.171875 -31.3125 26.210938 -31.3125 C 29.253906 -31.3125 30.863281 -28.628906 30.863281 -23.257812 C 30.863281 -17.890625 29.253906 -15.207031 26.210938 -15.207031 Z M 26.210938 -15.207031 "/></g></g></g><g fill="#ffffff" fill-opacity="1"><g transform="translate(139.295829, 138.456083)"><g><path d="M 33.816406 -47.414062 C 28.539062 -47.414062 24.066406 -43.925781 21.917969 -37.839844 L 21.828125 -37.839844 L 18.785156 -46.519531 L 2.238281 -46.519531 L 2.238281 0 L 22.8125 0 L 22.8125 -26.839844 C 22.8125 -30.773438 24.152344 -33.101562 26.390625 -33.101562 C 28.714844 -33.101562 30.148438 -30.59375 30.238281 -25.226562 L 47.414062 -29.523438 C 46.878906 -40.792969 41.777344 -47.414062 33.816406 -47.414062 Z M 33.816406 -47.414062 "/></g></g></g><g fill="#ffffff" fill-opacity="1"><g transform="translate(187.419481, 138.456083)"><g><path d="M 33.816406 -47.414062 C 28.539062 -47.414062 24.066406 -43.925781 21.917969 -37.839844 L 21.828125 -37.839844 L 18.785156 -46.519531 L 2.238281 -46.519531 L 2.238281 0 L 22.8125 0 L 22.8125 -26.839844 C 22.8125 -30.773438 24.152344 -33.101562 26.390625 -33.101562 C 28.714844 -33.101562 30.148438 -30.59375 30.238281 -25.226562 L 47.414062 -29.523438 C 46.878906 -40.792969 41.777344 -47.414062 33.816406 -47.414062 Z M 33.816406 -47.414062 "/></g></g></g><g fill="#ffffff" fill-opacity="1"><g transform="translate(235.543121, 138.456083)"><g><path d="M 26.210938 1.609375 C 41.597656 1.609375 51.261719 -7.960938 51.261719 -23.257812 C 51.261719 -38.558594 41.597656 -48.128906 26.210938 -48.128906 C 10.824219 -48.128906 1.164062 -38.558594 1.164062 -23.257812 C 1.164062 -7.960938 10.824219 1.609375 26.210938 1.609375 Z M 26.210938 -15.207031 C 23.171875 -15.207031 21.46875 -17.890625 21.46875 -23.257812 C 21.46875 -28.628906 23.171875 -31.3125 26.210938 -31.3125 C 29.253906 -31.3125 30.863281 -28.628906 30.863281 -23.257812 C 30.863281 -17.890625 29.253906 -15.207031 26.210938 -15.207031 Z M 26.210938 -15.207031 "/></g></g></g><g fill="#ffffff" fill-opacity="1"><g transform="translate(287.870885, 138.456083)"><g><path d="M 11.539062 0 L 33.457031 0 L 40.078125 -25.046875 L 40.257812 -25.046875 L 46.878906 0 L 68.792969 0 L 80.246094 -46.519531 L 59.847656 -46.519531 L 55.554688 -18.875 L 55.464844 -18.875 L 48.128906 -46.519531 L 32.117188 -46.519531 L 24.78125 -19.503906 L 24.691406 -19.503906 L 20.488281 -46.519531 L 0 -46.519531 Z M 11.539062 0 "/></g></g></g><g fill="#000000" fill-opacity="1"><g transform="translate(15.260742, 134.726263)"><g><path d="M 3.578125 0 L 38.734375 0 C 53.585938 0 61.726562 -6.351562 61.726562 -17.625 C 61.726562 -25.945312 57.253906 -31.222656 49.203125 -32.5625 L 49.203125 -32.742188 C 56.71875 -34.53125 60.832031 -39.542969 60.832031 -46.964844 C 60.832031 -58.148438 52.421875 -64.410156 37.304688 -64.410156 L 3.578125 -64.410156 Z M 26.839844 -38.914062 L 26.839844 -48.753906 L 33.191406 -48.753906 C 36.320312 -48.753906 38.019531 -47.054688 38.019531 -44.015625 C 38.019531 -40.792969 36.320312 -38.914062 33.191406 -38.914062 Z M 26.839844 -15.65625 L 26.839844 -25.945312 L 33.546875 -25.945312 C 36.769531 -25.945312 38.46875 -23.976562 38.46875 -20.398438 C 38.46875 -17.355469 36.769531 -15.65625 33.546875 -15.65625 Z M 26.839844 -15.65625 "/></g></g></g><g fill="#000000" fill-opacity="1"><g transform="translate(78.590753, 134.726263)"><g><path d="M 26.210938 1.609375 C 41.597656 1.609375 51.261719 -7.960938 51.261719 -23.257812 C 51.261719 -38.558594 41.597656 -48.128906 26.210938 -48.128906 C 10.824219 -48.128906 1.164062 -38.558594 1.164062 -23.257812 C 1.164062 -7.960938 10.824219 1.609375 26.210938 1.609375 Z M 26.210938 -15.207031 C 23.171875 -15.207031 21.46875 -17.890625 21.46875 -23.257812 C 21.46875 -28.628906 23.171875 -31.3125 26.210938 -31.3125 C 29.253906 -31.3125 30.863281 -28.628906 30.863281 -23.257812 C 30.863281 -17.890625 29.253906 -15.207031 26.210938 -15.207031 Z M 26.210938 -15.207031 "/></g></g></g><g fill="#000000" fill-opacity="1"><g transform="translate(130.918517, 134.726263)"><g><path d="M 33.816406 -47.414062 C 28.539062 -47.414062 24.066406 -43.925781 21.917969 -37.839844 L 21.828125 -37.839844 L 18.785156 -46.519531 L 2.238281 -46.519531 L 2.238281 0 L 22.8125 0 L 22.8125 -26.839844 C 22.8125 -30.773438 24.152344 -33.101562 26.390625 -33.101562 C 28.714844 -33.101562 30.148438 -30.59375 30.238281 -25.226562 L 47.414062 -29.523438 C 46.878906 -40.792969 41.777344 -47.414062 33.816406 -47.414062 Z M 33.816406 -47.414062 "/></g></g></g><g fill="#000000" fill-opacity="1"><g transform="translate(179.042168, 134.726263)"><g><path d="M 33.816406 -47.414062 C 28.539062 -47.414062 24.066406 -43.925781 21.917969 -37.839844 L 21.828125 -37.839844 L 18.785156 -46.519531 L 2.238281 -46.519531 L 2.238281 0 L 22.8125 0 L 22.8125 -26.839844 C 22.8125 -30.773438 24.152344 -33.101562 26.390625 -33.101562 C 28.714844 -33.101562 30.148438 -30.59375 30.238281 -25.226562 L 47.414062 -29.523438 C 46.878906 -40.792969 41.777344 -47.414062 33.816406 -47.414062 Z M 33.816406 -47.414062 "/></g></g></g><g fill="#000000" fill-opacity="1"><g transform="translate(227.165808, 134.726263)"><g><path d="M 26.210938 1.609375 C 41.597656 1.609375 51.261719 -7.960938 51.261719 -23.257812 C 51.261719 -38.558594 41.597656 -48.128906 26.210938 -48.128906 C 10.824219 -48.128906 1.164062 -38.558594 1.164062 -23.257812 C 1.164062 -7.960938 10.824219 1.609375 26.210938 1.609375 Z M 26.210938 -15.207031 C 23.171875 -15.207031 21.46875 -17.890625 21.46875 -23.257812 C 21.46875 -28.628906 23.171875 -31.3125 26.210938 -31.3125 C 29.253906 -31.3125 30.863281 -28.628906 30.863281 -23.257812 C 30.863281 -17.890625 29.253906 -15.207031 26.210938 -15.207031 Z M 26.210938 -15.207031 "/></g></g></g><g fill="#000000" fill-opacity="1"><g transform="translate(279.493572, 134.726263)"><g><path d="M 11.539062 0 L 33.457031 0 L 40.078125 -25.046875 L 40.257812 -25.046875 L 46.878906 0 L 68.792969 0 L 80.246094 -46.519531 L 59.847656 -46.519531 L 55.554688 -18.875 L 55.464844 -18.875 L 48.128906 -46.519531 L 32.117188 -46.519531 L 24.78125 -19.503906 L 24.691406 -19.503906 L 20.488281 -46.519531 L 0 -46.519531 Z M 11.539062 0 "/></g></g></g></svg>